<svg xmlns="http://www.w3.org/2000/svg" width="30" height="30" viewBox="0 0 30 30">
  <g id="Group_227" data-name="Group 227" transform="translate(-500 -594)">
    <rect id="Rectangle_17037" data-name="Rectangle 17037" width="30" height="30" transform="translate(500 594)" fill="rgba(255,255,255,0)"/>
    <g id="Group_217" data-name="Group 217" transform="translate(501 602)">
      <path id="Shape" d="M26.7,32.076h2.459a1,1,0,0,1,.984,1V38.1a1,1,0,0,1-.984,1h-18.2v1.942a1.006,1.006,0,0,1-.555.9.967.967,0,0,1-1.039-.116L2.6,36.377a1.014,1.014,0,0,1,0-1.576l6.772-5.456a.967.967,0,0,1,1.039-.116,1.006,1.006,0,0,1,.555.9v1.942Z" transform="translate(-1.686 -28.589)" fill="#f44335"/>
      <g id="Group_217-2" data-name="Group 217" transform="translate(7.489 0.54)">
        <path id="Shape-2" data-name="Shape" d="M16.754,30.21V32.3h1.62V30.21a1.08,1.08,0,0,0-1.75-.848l-.159.125a1.049,1.049,0,0,1,.288.723Z" transform="translate(-16.466 -29.129)" fill="#051225" opacity="0.2"/>
        <path id="Shape-3" data-name="Shape" d="M16.754,51.09a1.049,1.049,0,0,1-.288.723l.159.125a1.08,1.08,0,0,0,1.75-.848V49h-1.62Z" transform="translate(-16.466 -39.251)" fill="#051225" opacity="0.2"/>
        <path id="Shape-4" data-name="Shape" d="M55.62,35H54a1.02,1.02,0,0,1,1.08.94v4.7a1.02,1.02,0,0,1-1.08.94h1.62a1.02,1.02,0,0,0,1.08-.94v-4.7A1.02,1.02,0,0,0,55.62,35Z" transform="translate(-35.729 -31.829)" fill="#051225" opacity="0.2"/>
      </g>
      <path id="Shape-5" data-name="Shape" d="M53.16,43.7H51.54a.54.54,0,0,1,0-1.08h1.08V41.54a.54.54,0,1,1,1.08,0v1.62A.54.54,0,0,1,53.16,43.7Z" transform="translate(-26.861 -34.228)" fill="#f5f5f5"/>
      <path id="Shape-6" data-name="Shape" d="M28.746,31.092H26.279a.5.5,0,0,0,0,1.009h2.467a.5.5,0,0,1,.493.5v5.047a.5.5,0,0,1-.493.5H10.49a.5.5,0,0,0-.493.5v1.953a.506.506,0,0,1-.278.454.484.484,0,0,1-.521-.058L2.4,35.525a.509.509,0,0,1,0-.791l6.8-5.487a.484.484,0,0,1,.521-.057.506.506,0,0,1,.278.454V31.6a.5.5,0,0,0,.493.5H23.812a.5.5,0,0,0,0-1.009H10.983V29.644a1.517,1.517,0,0,0-.835-1.363,1.453,1.453,0,0,0-1.563.174L1.792,33.94a1.532,1.532,0,0,0,0,2.377L8.584,41.8a1.453,1.453,0,0,0,1.564.176,1.517,1.517,0,0,0,.835-1.363V39.167H28.746a1.5,1.5,0,0,0,1.48-1.514V32.606a1.5,1.5,0,0,0-1.48-1.514Z" transform="translate(-1.226 -28.13)"/>
    </g>
  </g>
</svg>
