<svg xmlns="http://www.w3.org/2000/svg" width="30" height="31" viewBox="0 0 30 31">
  <g id="Group_247" data-name="Group 247" transform="translate(-633 -334)">
    <rect id="Rectangle_17038" data-name="Rectangle 17038" width="30" height="30" transform="translate(633 334)" fill="rgba(255,255,255,0)"/>
    <g id="fist-bump" transform="translate(633 335.002)">
      <g id="Group_245" data-name="Group 245" transform="translate(0.44 0.438)">
        <g id="Group_238" data-name="Group 238" transform="translate(0 11.149)">
          <g id="Group_235" data-name="Group 235" transform="translate(0 0.705)">
            <g id="Group_234" data-name="Group 234">
              <g id="Group_233" data-name="Group 233">
                <path id="Path_116" data-name="Path 116" d="M24.451,218.357l-3.883,3.883-2.586.212-4.626,4.626L7.5,221.221l1.765-1.765.234-1.683a5.442,5.442,0,0,1,1.542-3.1l4.864-4.864Z" transform="translate(-7.499 -209.811)" fill="#f9a08f"/>
              </g>
            </g>
          </g>
          <path id="Path_117" data-name="Path 117" d="M98.827,217.27l-3.193,3.193a2.995,2.995,0,0,1-5.086-2.522,2.992,2.992,0,0,1-1.374-2.523,3,3,0,0,1-1.511-1.9l3.709-3.709Z" transform="translate(-82.966 -209.108)" fill="#f69583"/>
          <g id="Group_236" data-name="Group 236" transform="translate(6.084)">
            <path id="Path_118" data-name="Path 118" d="M111.779,202.492a1.51,1.51,0,0,1,0-2.135l2.258-2.258a1.115,1.115,0,0,1,1.577,0l.558.558a1.115,1.115,0,0,1,0,1.577l-2.258,2.258A1.51,1.51,0,0,1,111.779,202.492Z" transform="translate(-111.337 -197.773)" fill="#fdb0a0"/>
            <path id="Path_119" data-name="Path 119" d="M117.331,202.574l-2.258,2.258a1.51,1.51,0,0,1-2.135,0,1.494,1.494,0,0,1-.37-.606,1.51,1.51,0,0,0,1.528-.37l2.258-2.258a1.115,1.115,0,0,0,.181-1.339,1.105,1.105,0,0,1,.237.181l.558.558A1.114,1.114,0,0,1,117.331,202.574Z" transform="translate(-112.496 -200.112)" fill="#f9a08f"/>
            <path id="Path_120" data-name="Path 120" d="M139.247,239.455a1.51,1.51,0,0,1,0-2.135l2.784-2.784a1.115,1.115,0,0,1,1.577,0l.558.558a1.115,1.115,0,0,1,0,1.577l-2.784,2.784A1.51,1.51,0,0,1,139.247,239.455Z" transform="translate(-137.195 -232.074)" fill="#fdb0a0"/>
            <path id="Path_121" data-name="Path 121" d="M145.317,238.995l-2.784,2.784a1.51,1.51,0,0,1-2.506-.607,1.509,1.509,0,0,0,1.529-.37l2.784-2.784a1.114,1.114,0,0,0,.18-1.34,1.11,1.11,0,0,1,.238.182l.558.558A1.115,1.115,0,0,1,145.317,238.995Z" transform="translate(-138.347 -234.398)" fill="#f9a08f"/>
            <path id="Path_122" data-name="Path 122" d="M162.23,276.68a1.51,1.51,0,0,1,0-2.135l3.572-3.572a1.115,1.115,0,0,1,1.577,0l.558.558a1.115,1.115,0,0,1,0,1.577l-3.572,3.572A1.51,1.51,0,0,1,162.23,276.68Z" transform="translate(-158.831 -266.377)" fill="#fdb0a0"/>
            <path id="Path_123" data-name="Path 123" d="M169.35,275.834l-3.572,3.572a1.51,1.51,0,0,1-2.489-.56,1.509,1.509,0,0,0,1.575-.354l3.572-3.572a1.113,1.113,0,0,0,.157-1.378,1.078,1.078,0,0,1,.2.157l.559.559A1.114,1.114,0,0,1,169.35,275.834Z" transform="translate(-160.245 -269.102)" fill="#f9a08f"/>
            <path id="Path_124" data-name="Path 124" d="M212.121,312.329a1.51,1.51,0,0,1,0-2.135l2.784-2.784a1.115,1.115,0,0,1,1.577,0l.558.558a1.115,1.115,0,0,1,0,1.577l-2.784,2.784A1.51,1.51,0,0,1,212.121,312.329Z" transform="translate(-205.799 -300.678)" fill="#fdb0a0"/>
            <path id="Path_125" data-name="Path 125" d="M218.46,312.27l-2.784,2.784a1.509,1.509,0,0,1-2.135,0,1.494,1.494,0,0,1-.354-.559,1.509,1.509,0,0,0,1.574-.355l2.784-2.783a1.116,1.116,0,0,0,.158-1.378,1.085,1.085,0,0,1,.2.157l.558.558A1.114,1.114,0,0,1,218.46,312.27Z" transform="translate(-207.22 -303.403)" fill="#f9a08f"/>
          </g>
          <g id="Group_237" data-name="Group 237" transform="translate(4.46 4.467)">
            <path id="Path_126" data-name="Path 126" d="M114.778,274.7l.249,5.891a3.944,3.944,0,0,1-.393,1.889l-.877,1.806a2.285,2.285,0,0,1-1.283,1.152l-1.055.379a4.925,4.925,0,0,1-1.665.29h-3.179l.432-.979a24.631,24.631,0,0,0,1.1-3.109,3.313,3.313,0,0,1,3.182-2.389h.548v-3.4a2.216,2.216,0,0,1,2.216-2.216A.731.731,0,0,1,114.778,274.7Z" transform="translate(-105.231 -274.009)" fill="#f9a08f"/>
            <path id="Path_127" data-name="Path 127" d="M92.145,284.276l.877-1.805a3.937,3.937,0,0,0,.392-1.89l-.249-5.89a.733.733,0,0,0-.729-.687,2.21,2.21,0,0,0-1.443.534h.03a.7.7,0,0,1,.7.657l.182,4.344a3.771,3.771,0,0,1-.376,1.809l-.84,1.729a2.185,2.185,0,0,1-1.228,1.1l-1.783.641-1.821-.1a1.8,1.8,0,0,0-1.374.526l-.865.865,1.4,1.4,1.412-1.412h1.716a4.926,4.926,0,0,0,1.665-.29l1.054-.379A2.282,2.282,0,0,0,92.145,284.276Z" transform="translate(-83.618 -274.003)" fill="#f69583"/>
          </g>
        </g>
        <g id="Group_244" data-name="Group 244" transform="translate(11.149)">
          <g id="Group_241" data-name="Group 241" transform="translate(0.705)">
            <g id="Group_240" data-name="Group 240">
              <g id="Group_239" data-name="Group 239">
                <path id="Path_128" data-name="Path 128" d="M218.357,24.451l3.883-3.883.212-2.586,4.626-4.626L221.221,7.5l-1.765,1.765-1.683.234a5.442,5.442,0,0,0-3.1,1.542L209.811,15.9Z" transform="translate(-209.811 -7.499)" fill="#fcc69d"/>
              </g>
            </g>
          </g>
          <g id="Group_242" data-name="Group 242" transform="translate(0 6.084)">
            <path id="Path_129" data-name="Path 129" d="M202.492,111.779a1.51,1.51,0,0,0-2.135,0l-2.258,2.258a1.115,1.115,0,0,0,0,1.577l.558.558a1.115,1.115,0,0,0,1.577,0l2.258-2.258A1.51,1.51,0,0,0,202.492,111.779Z" transform="translate(-197.773 -111.337)" fill="#fcc69d"/>
            <path id="Path_130" data-name="Path 130" d="M204.832,115.073l-2.258,2.258a1.114,1.114,0,0,1-1.576,0l-.558-.558a1.1,1.1,0,0,1-.181-.237,1.115,1.115,0,0,0,1.339-.181l2.258-2.258a1.51,1.51,0,0,0,.37-1.528,1.494,1.494,0,0,1,.606.37A1.51,1.51,0,0,1,204.832,115.073Z" transform="translate(-200.112 -112.496)" fill="#fabc8d"/>
            <path id="Path_131" data-name="Path 131" d="M239.455,139.247a1.51,1.51,0,0,0-2.135,0l-2.784,2.784a1.115,1.115,0,0,0,0,1.577l.558.558a1.115,1.115,0,0,0,1.577,0l2.784-2.784A1.51,1.51,0,0,0,239.455,139.247Z" transform="translate(-232.074 -137.195)" fill="#fcc69d"/>
            <path id="Path_132" data-name="Path 132" d="M241.779,142.534l-2.784,2.784a1.115,1.115,0,0,1-1.577,0l-.558-.558a1.108,1.108,0,0,1-.182-.238,1.114,1.114,0,0,0,1.34-.18l2.784-2.784a1.509,1.509,0,0,0,.37-1.529,1.51,1.51,0,0,1,.607,2.506Z" transform="translate(-234.398 -138.347)" fill="#fabc8d"/>
            <path id="Path_133" data-name="Path 133" d="M276.68,162.23a1.51,1.51,0,0,0-2.135,0l-3.572,3.572a1.115,1.115,0,0,0,0,1.577l.558.558a1.115,1.115,0,0,0,1.577,0l3.572-3.572A1.51,1.51,0,0,0,276.68,162.23Z" transform="translate(-266.377 -158.831)" fill="#fcc69d"/>
            <path id="Path_134" data-name="Path 134" d="M276.679,164.365l-3.572,3.572c-.019.019-.04.038-.06.055l-1.526-.064-.549-.549a1.114,1.114,0,0,1,0-1.576l3.164-3.164h1.194a4.457,4.457,0,0,1,.207-.848,1.51,1.51,0,0,1,1.141,2.575Z" transform="translate(-266.376 -158.831)" fill="#fabc8d"/>
            <path id="Path_135" data-name="Path 135" d="M312.329,212.121a1.51,1.51,0,0,0-2.135,0L307.41,214.9a1.115,1.115,0,0,0,0,1.577l.558.558a1.115,1.115,0,0,0,1.577,0l2.784-2.784A1.51,1.51,0,0,0,312.329,212.121Z" transform="translate(-300.678 -205.799)" fill="#fcc69d"/>
            <path id="Path_136" data-name="Path 136" d="M314.932,212.118a1.508,1.508,0,0,0-2.135,0l-2.784,2.783c-.018.018-.035.036-.052.056l1.346.057a.42.42,0,0,1,.279.716l-.372.372a1.116,1.116,0,0,1-1.365.166,1.1,1.1,0,0,0,.165.21l.558.558a1.115,1.115,0,0,0,1.576,0l2.784-2.784A1.509,1.509,0,0,0,314.932,212.118Z" transform="translate(-303.282 -205.796)" fill="#fabc8d"/>
          </g>
          <g id="Group_243" data-name="Group 243" transform="translate(4.467 4.46)">
            <path id="Path_137" data-name="Path 137" d="M274.7,114.778l5.891.249a3.944,3.944,0,0,0,1.889-.393l1.806-.877a2.285,2.285,0,0,0,1.152-1.283l.379-1.055a4.925,4.925,0,0,0,.29-1.665v-3.179l-.979.432a24.631,24.631,0,0,1-3.109,1.1,3.313,3.313,0,0,0-2.389,3.182v.548h-3.4a2.216,2.216,0,0,0-2.216,2.216A.731.731,0,0,0,274.7,114.778Z" transform="translate(-274.009 -105.231)" fill="#fabc8d"/>
            <path id="Path_138" data-name="Path 138" d="M284.276,92.145l-1.805.877a3.937,3.937,0,0,1-1.89.392l-5.89-.249a.733.733,0,0,1-.687-.729,2.21,2.21,0,0,1,.534-1.443c0,.01,0,.019,0,.03a.7.7,0,0,0,.657.7l4.344.182a3.771,3.771,0,0,0,1.809-.376l1.729-.84a2.185,2.185,0,0,0,1.1-1.228l.641-1.783-.1-1.821a1.8,1.8,0,0,1,.526-1.374l.865-.865,1.4,1.4L286.1,86.426v1.716a4.926,4.926,0,0,1-.29,1.665l-.379,1.054A2.282,2.282,0,0,1,284.276,92.145Z" transform="translate(-274.003 -83.618)" fill="#fabc8d"/>
          </g>
        </g>
      </g>
      <g id="Group_246" data-name="Group 246" transform="translate(0 -0.002)">
        <path id="Path_139" data-name="Path 139" d="M94.775,202.888a2.281,2.281,0,0,0,.261-.217l2.784-2.784a1.554,1.554,0,0,0,0-2.2l-.558-.558a1.549,1.549,0,0,0-1.122-.454c0-.008,0-.016,0-.024a1.544,1.544,0,0,0-.455-1.1L95.126,195A1.56,1.56,0,0,0,94,194.543a1.557,1.557,0,0,0-.454-1.124l-.558-.558a1.544,1.544,0,0,0-1.1-.455h-.023c0-.008,0-.015,0-.023a1.544,1.544,0,0,0-.455-1.1l-.558-.558a1.554,1.554,0,0,0-2.2,0l-3.821,3.821a.439.439,0,0,0,.622.621l.411-.411a1.95,1.95,0,0,0,1.708,1.543,1.947,1.947,0,0,0,1.486,2.642,1.953,1.953,0,0,0-.095,1.828,3.745,3.745,0,0,0-1.482,1.394.439.439,0,1,0,.752.455,2.854,2.854,0,0,1,2.46-1.388h.548a.439.439,0,0,0,.439-.439v-3.4a1.778,1.778,0,0,1,1.776-1.776.292.292,0,0,1,.291.271L94,201.774a3.516,3.516,0,0,1-.349,1.679l-.877,1.806a1.836,1.836,0,0,1-1.036.931l-1.055.379a4.474,4.474,0,0,1-1.517.264H86.395a.439.439,0,0,0,0,.879l-.661.661a.439.439,0,0,0,.622.621l1.282-1.282h1.534a5.351,5.351,0,0,0,1.814-.316l1.055-.379a2.71,2.71,0,0,0,1.53-1.374l.877-1.806A4.393,4.393,0,0,0,94.775,202.888Zm.486-6.235a.671.671,0,0,1-.2.477h0l-.362.362-.07-1.648v-.008c0-.036-.006-.071-.012-.106l.444.444a.671.671,0,0,1,.2.478Zm-8.553-2.291a1.063,1.063,0,0,1,.313-.757l2.258-2.258a.675.675,0,0,1,.955,0l.558.558a.675.675,0,0,1,0,.955h0l-2.258,2.258h0a1.07,1.07,0,0,1-1.827-.757Zm3.991,5.991a3.8,3.8,0,0,0-.9.108,1.071,1.071,0,0,1,.181-1.272l.83-.83v1.994H90.7Zm.125-3.253-.679.679h0a1.07,1.07,0,0,1-1.513-1.514l2.784-2.784a.675.675,0,0,1,.955,0l.558.558a.678.678,0,0,1,.151.725A2.66,2.66,0,0,0,90.824,197.1Zm6.374,2.166-2.324,2.324-.123-2.9,0,0,.929-.929a.676.676,0,0,1,.955,0l.558.558a.675.675,0,0,1,0,.955Z" transform="translate(-79.745 -179.122)"/>
        <path id="Path_140" data-name="Path 140" d="M3.623,286.236A5.844,5.844,0,0,0,2,289.534l-.214,1.537L.129,292.732a.439.439,0,0,0,.622.621l1.765-1.765a.44.44,0,0,0,.125-.25l.234-1.683a4.97,4.97,0,0,1,1.377-2.806.439.439,0,1,0-.629-.614Z" transform="translate(0 -269.339)"/>
        <path id="Path_141" data-name="Path 141" d="M203.451,13.919a3.514,3.514,0,0,1-1.654.337l-5.886-.249a.292.292,0,0,1-.271-.291,1.778,1.778,0,0,1,1.776-1.776h3.4a.439.439,0,0,0,.439-.439v-.548a2.853,2.853,0,0,1,1.388-2.46.439.439,0,1,0-.455-.752A3.746,3.746,0,0,0,200.8,9.222a1.953,1.953,0,0,0-1.827.094,1.949,1.949,0,0,0-2.645-1.485,1.948,1.948,0,0,0-1.542-1.709l1.832-1.832a5.034,5.034,0,0,1,2.848-1.418l1.683-.234a.44.44,0,0,0,.25-.125L203.16.748a.439.439,0,0,0-.622-.621l-1.661,1.661L199.341,2a5.919,5.919,0,0,0-3.348,1.667L190.75,8.912a1.56,1.56,0,0,0-.436,1.338.439.439,0,1,0,.869-.135.669.669,0,0,1,.189-.582l2.258-2.258a1.07,1.07,0,1,1,1.513,1.514h0l-2.258,2.258h0a.675.675,0,0,1-.6.186.439.439,0,1,0-.163.864,1.561,1.561,0,0,0,.29.027h.023c0,.008,0,.015,0,.023a1.544,1.544,0,0,0,.455,1.1l.558.558a1.555,1.555,0,0,0,1.1.455h.023a1.561,1.561,0,0,0,.453,1.122l.558.558a1.544,1.544,0,0,0,1.1.455h.023c0,.008,0,.015,0,.023a1.544,1.544,0,0,0,.455,1.1l.558.558a1.554,1.554,0,0,0,2.2,0l2.784-2.784a1.963,1.963,0,0,0,.219-.261,4.386,4.386,0,0,0,.915-.316.439.439,0,1,0-.378-.793Zm-2.965-3.868a3.8,3.8,0,0,0-.108.9v.109h-1.994l.83-.83A1.07,1.07,0,0,1,200.486,10.051Zm-6.421,3.131-.558-.558a.675.675,0,0,1,0-.955l2.784-2.784A1.07,1.07,0,0,1,197.8,10.4l-.649.649c-.01.01-.019.02-.027.03a2.66,2.66,0,0,0-2.338,2.256.676.676,0,0,1-.725-.151Zm2.613,2.333a.671.671,0,0,1-.478-.2l-.444-.444c.035.005.07.009.106.012h.008l1.648.07-.362.362A.671.671,0,0,1,196.677,15.515Zm2.613,1.937a.675.675,0,0,1-.955,0l-.558-.558a.675.675,0,0,1,0-.955h0l.929-.929,0,0,2.9.123Z" transform="translate(-179.146 0.002)"/>
        <path id="Path_142" data-name="Path 142" d="M446.319,100.086a.439.439,0,0,0-.621,0l-.661.661a.439.439,0,0,0-.879,0v2.774a4.473,4.473,0,0,1-.264,1.517l-.379,1.055a1.838,1.838,0,0,1-.9,1.023.439.439,0,1,0,.4.785,2.713,2.713,0,0,0,1.336-1.51l.379-1.055a5.349,5.349,0,0,0,.316-1.814V101.99l1.283-1.282A.44.44,0,0,0,446.319,100.086Z" transform="translate(-416.447 -94.1)"/>
        <path id="Path_143" data-name="Path 143" d="M348.59,342.8a.439.439,0,0,0-.622.621l1.123,1.126a.439.439,0,0,0,.622-.621Z" transform="translate(-327.458 -322.595)"/>
        <path id="Path_144" data-name="Path 144" d="M325.144,356.794a.44.44,0,0,0-.866.151l.243,1.392a.439.439,0,0,0,.866-.151Z" transform="translate(-305.271 -335.545)"/>
        <path id="Path_145" data-name="Path 145" d="M363.478,319.379l-1.392-.243a.439.439,0,1,0-.151.866l1.391.243a.445.445,0,0,0,.076.007.439.439,0,0,0,.075-.872Z" transform="translate(-340.385 -300.43)"/>
        <path id="Path_146" data-name="Path 146" d="M131.246,126.705a.439.439,0,1,0,.622-.621l-1.123-1.126a.439.439,0,1,0-.622.621Z" transform="translate(-122.378 -117.515)"/>
        <path id="Path_147" data-name="Path 147" d="M168.826,108.438a.439.439,0,0,0,.866-.151l-.243-1.392a.439.439,0,0,0-.866.151Z" transform="translate(-158.699 -100.289)"/>
        <path id="Path_148" data-name="Path 148" d="M112.038,164.306l1.392.243a.439.439,0,1,0,.151-.866l-1.392-.243a.439.439,0,1,0-.151.866Z" transform="translate(-105.131 -153.857)"/>
      </g>
    </g>
  </g>
</svg>
