<svg xmlns="http://www.w3.org/2000/svg" width="30" height="30" viewBox="0 0 30 30">
  <g id="Group_232" data-name="Group 232" transform="translate(-757 -192)">
    <rect id="Rectangle_17036" data-name="Rectangle 17036" width="30" height="30" transform="translate(757 192)" fill="rgba(255,255,255,0)"/>
    <g id="dice-2" transform="translate(760 194.501)">
      <g id="Group_221" data-name="Group 221" transform="translate(0.488 0.988)">
        <path id="Path_96" data-name="Path 96" d="M18.81,192.313H12a2.021,2.021,0,0,0-2.016,2.015v10.193A2.022,2.022,0,0,0,12,206.536h10.2a1.994,1.994,0,0,0,1.077-.315,2.015,2.015,0,0,0,.939-1.7V194.327a2.021,2.021,0,0,0-2.016-2.015Zm0,0" transform="translate(-9.988 -183.513)" fill="#f9f9f9" fill-rule="evenodd"/>
        <path id="Path_97" data-name="Path 97" d="M190.59,19.38h3.4A2.021,2.021,0,0,1,196,21.395V25.23l5.893.923a2.023,2.023,0,0,0,2.3-1.68L205.777,14.4a2.021,2.021,0,0,0-1.68-2.3l-10.079-1.576a2.022,2.022,0,0,0-2.3,1.678Zm0,0" transform="translate(-182.777 -10.499)" fill="#e8e7e9" fill-rule="evenodd"/>
        <path id="Path_98" data-name="Path 98" d="M258.026,73.652a.943.943,0,1,0-.787-1.077A.943.943,0,0,0,258.026,73.652Zm0,0" transform="translate(-245.702 -68.785)" fill="#e85858" fill-rule="evenodd"/>
        <path id="Path_99" data-name="Path 99" d="M324.161,147.676a.943.943,0,1,0,.786,1.078A.943.943,0,0,0,324.161,147.676Zm0,0" transform="translate(-308.476 -140.99)" fill="#e85858" fill-rule="evenodd"/>
        <path id="Path_100" data-name="Path 100" d="M388.035,231.579a.943.943,0,1,0,.786,1.077A.943.943,0,0,0,388.035,231.579Zm0,0" transform="translate(-369.372 -220.81)" fill="#e85858" fill-rule="evenodd"/>
        <path id="Path_101" data-name="Path 101" d="M214.7,250.958a.944.944,0,1,0-.944.942A.943.943,0,0,0,214.7,250.958Zm0,0" transform="translate(-203.361 -238.361)" fill="#ffcb7c" fill-rule="evenodd"/>
        <path id="Path_102" data-name="Path 102" d="M138.616,315.427a.943.943,0,1,0-.943.944A.943.943,0,0,0,138.616,315.427Zm0,0" transform="translate(-130.822 -299.693)" fill="#ffcb7c" fill-rule="evenodd"/>
        <path id="Path_103" data-name="Path 103" d="M213.759,387.512a.942.942,0,1,0,.944.942A.943.943,0,0,0,213.759,387.512Zm0,0" transform="translate(-203.361 -369.177)" fill="#ffcb7c" fill-rule="evenodd"/>
        <path id="Path_104" data-name="Path 104" d="M60.88,389.084a.942.942,0,1,0-.943-.942A.943.943,0,0,0,60.88,389.084Zm0,0" transform="translate(-57.498 -368.88)" fill="#ffcb7c" fill-rule="evenodd"/>
        <path id="Path_105" data-name="Path 105" d="M60.88,251.588a.942.942,0,1,0-.943-.942A.943.943,0,0,0,60.88,251.588Zm0,0" transform="translate(-57.498 -238.064)" fill="#ffcb7c" fill-rule="evenodd"/>
      </g>
      <path id="Path_109" data-name="Path 109" d="M23.536,3.1a2.375,2.375,0,0,0-1.568-1l-2.632-.427a.471.471,0,0,0-.535.405.484.484,0,0,0,.39.555l2.632.427a1.45,1.45,0,0,1,.956.609,1.553,1.553,0,0,1,.266,1.13L21.531,14.838a1.488,1.488,0,0,1-1.449,1.287,1.406,1.406,0,0,1-.226-.018l-5.26-.855V11.845a2.453,2.453,0,0,0-2.4-2.494H9.481l.994-6.592a1.521,1.521,0,0,1,.587-.993,1.412,1.412,0,0,1,1.089-.275l3.362.549a.471.471,0,0,0,.535-.4.484.484,0,0,0-.39-.556L12.3.53a2.316,2.316,0,0,0-1.786.449A2.494,2.494,0,0,0,9.55,2.608L8.533,9.351H2.4A2.452,2.452,0,0,0,0,11.845V22a2.453,2.453,0,0,0,2.4,2.5h9.791A2.453,2.453,0,0,0,14.6,22V16.236l5.115.832a2.315,2.315,0,0,0,.37.03,2.438,2.438,0,0,0,2.374-2.109L23.971,4.951A2.549,2.549,0,0,0,23.536,3.1ZM13.66,22a1.5,1.5,0,0,1-1.466,1.523H2.4A1.5,1.5,0,0,1,.936,22V11.845A1.5,1.5,0,0,1,2.4,10.324h9.791a1.5,1.5,0,0,1,1.466,1.521V22Zm0,0"/>
      <path id="Path_115" data-name="Path 115" d="M362.4,19.37h.008a.488.488,0,0,0,.16-.962h-.008a.488.488,0,1,0-.16.962Zm0,0" transform="translate(-345.056 -17.027)"/>
    </g>
  </g>
</svg>
