<svg xmlns="http://www.w3.org/2000/svg" width="72" height="80" viewBox="0 0 72 80">
  <g id="dice" transform="translate(-19.702 -15.703)">
    <path id="Path_1" data-name="Path 1" d="M89.868,36.091a13.768,13.768,0,0,0-5.024-5.04c-.008-.009-.017-.009-.025-.017L61.4,17.542c-.034-.017-.059-.034-.093-.051a13.786,13.786,0,0,0-13.714.077L26.83,29.611l-.2.11A13.776,13.776,0,0,0,19.778,41.4v.17L19.7,68.421v.05a13.748,13.748,0,0,0,6.823,11.858c.025.017.042.026.068.043l6.416,3.693,17,9.791a13.774,13.774,0,0,0,13.808-.017L84.777,81.684c.008-.008.017-.008.025-.017a13.733,13.733,0,0,0,6.823-11.832l.076-26.85v-.051A13.722,13.722,0,0,0,89.868,36.091Z" transform="translate(0)" fill="#ecedef"/>
    <path id="Path_2" data-name="Path 2" d="M63.38,47.489a15.351,15.351,0,0,1-12.949.1L21.59,34.4l26.8,17.033a14.7,14.7,0,0,1,6.842,11.594L56.928,94.3,59.177,62.27a14.689,14.689,0,0,1,6.491-11.142L89.5,35.075Z" transform="translate(0 1.405)" fill="#f9f9f9"/>
    <path id="Path_3" data-name="Path 3" d="M55.046,29.271c-3.218,0-5.826,1.654-5.826,3.695s2.608,3.694,5.826,3.694,5.826-1.654,5.826-3.694S58.263,29.271,55.046,29.271Z" transform="translate(0.703 0.268)" fill="#304551"/>
    <path id="Path_4" data-name="Path 4" d="M71.748,58.129c-1.824-.913-4.374.485-5.694,3.123s-.912,5.517.912,6.43S71.34,67.2,72.66,64.56,73.572,59.043,71.748,58.129Z" transform="translate(1.024 0.865)" fill="#4288b9"/>
    <path id="Path_5" data-name="Path 5" d="M82.184,65.994c-1.824-.913-4.374.485-5.695,3.123s-.912,5.517.912,6.43,4.374-.485,5.695-3.123S84.008,66.907,82.184,65.994Z" transform="translate(1.403 1.026)" fill="#4288b9"/>
    <g id="Group_1" data-name="Group 1" transform="translate(26.844 53.049)">
      <path id="Path_6" data-name="Path 6" d="M41.022,57.349c1.824-.913,4.374.485,5.694,3.123s.912,5.517-.912,6.43-4.374-.485-5.695-3.123S39.2,58.262,41.022,57.349Z" transform="translate(-26.844 -52.013)" fill="#de594e"/>
      <path id="Path_7" data-name="Path 7" d="M28.532,65.994c1.824-.913,4.374.485,5.695,3.123s.912,5.517-.912,6.43-4.374-.485-5.695-3.123S26.707,66.907,28.532,65.994Z" transform="translate(-26.844 -52.013)" fill="#de594e"/>
      <path id="Path_8" data-name="Path 8" d="M29.029,52.293c1.824-.913,4.374.485,5.695,3.123s.912,5.517-.912,6.43-4.374-.485-5.695-3.123S27.2,53.206,29.029,52.293Z" transform="translate(-26.844 -52.013)" fill="#de594e"/>
      <path id="Path_9" data-name="Path 9" d="M39.867,71.505c1.824-.913,4.374.485,5.694,3.123s.912,5.517-.912,6.43-4.374-.485-5.695-3.123S38.042,72.419,39.867,71.505Z" transform="translate(-26.844 -52.013)" fill="#de594e"/>
    </g>
  </g>
</svg>
