<svg xmlns="http://www.w3.org/2000/svg" width="30" height="30" viewBox="0 0 30 30">
  <g id="Group_253" data-name="Group 253" transform="translate(-755 -59)">
    <rect id="Rectangle_17039" data-name="Rectangle 17039" width="30" height="30" transform="translate(755 59)" fill="rgba(255,255,255,0)"/>
    <g id="star" transform="translate(758 42)">
      <g id="Group_250" data-name="Group 250" transform="translate(0.703 21.891)">
        <path id="Path_149" data-name="Path 149" d="M74,109.429s6.165-1.791,7.078-6.429c0,0,2.062,6.371,7.734,6.337,0,0-7.313,1.1-7.734,8.358C81.078,117.7,81.453,110.256,74,109.429Z" transform="translate(-71.234 -99.898)" fill="#ffda8f"/>
        <path id="Path_150" data-name="Path 150" d="M15,41.707s2.185-.673,2.509-2.416c0,0,.731,2.394,2.741,2.382a3.345,3.345,0,0,0-2.741,3.141s.133-2.8-2.509-3.107Z" transform="translate(-15 -39.291)" fill="#ffda8f"/>
        <path id="Path_151" data-name="Path 151" d="M335,325.4s3.063-.944,3.517-3.387c0,0,1.025,3.356,3.843,3.339a4.689,4.689,0,0,0-3.843,4.4S338.7,325.836,335,325.4Z" transform="translate(-320 -309.133)" fill="#ffda8f"/>
      </g>
      <g id="Group_252" data-name="Group 252" transform="translate(0 21)">
        <g id="Group_251" data-name="Group 251">
          <path id="Path_152" data-name="Path 152" d="M312.469,296.357a3.829,3.829,0,0,1,3.75,3.9.469.469,0,1,0,.937,0,3.829,3.829,0,0,1,3.75-3.9.487.487,0,0,0,0-.974,3.829,3.829,0,0,1-3.75-3.9.469.469,0,1,0-.937,0,3.829,3.829,0,0,1-3.75,3.9.487.487,0,0,0,0,.974Zm4.219-2.748a4.814,4.814,0,0,0,2.176,2.261,4.815,4.815,0,0,0-2.176,2.261,4.815,4.815,0,0,0-2.176-2.261A4.814,4.814,0,0,0,316.688,293.609Z" transform="translate(-297.375 -278.74)" fill="#051225"/>
          <path id="Path_153" data-name="Path 153" d="M.469,24.9a2.393,2.393,0,0,1,2.344,2.435.469.469,0,1,0,.938,0A2.393,2.393,0,0,1,6.094,24.9a.487.487,0,0,0,0-.974A2.393,2.393,0,0,1,3.75,21.487a.469.469,0,1,0-.938,0A2.393,2.393,0,0,1,.469,23.922a.487.487,0,0,0,0,.974Zm2.813-1.655a3.375,3.375,0,0,0,1.124,1.168,3.374,3.374,0,0,0-1.124,1.168,3.375,3.375,0,0,0-1.124-1.168A3.375,3.375,0,0,0,3.281,23.241Z" transform="translate(0 -21)" fill="#051225"/>
          <ellipse id="Ellipse_6" data-name="Ellipse 6" cx="0.353" cy="0.367" rx="0.353" ry="0.367" transform="translate(12.706 12.393)"/>
          <path id="Path_154" data-name="Path 154" d="M48.641,61.208a.472.472,0,0,0,.642.162,8.026,8.026,0,0,1,4.06-1.1.464.464,0,1,0,0-.927,7.934,7.934,0,0,1-7.969-7.881.469.469,0,0,0-.938,0,7.934,7.934,0,0,1-7.969,7.881.464.464,0,1,0,0,.927,7.934,7.934,0,0,1,7.969,7.881.469.469,0,0,0,.938,0,7.806,7.806,0,0,1,1.11-4.016.461.461,0,0,0-.164-.635.472.472,0,0,0-.642.162,8.7,8.7,0,0,0-.773,1.666,8.9,8.9,0,0,0-5.584-5.522,8.9,8.9,0,0,0,5.584-5.523,8.9,8.9,0,0,0,5.583,5.522,8.893,8.893,0,0,0-1.684.765A.461.461,0,0,0,48.641,61.208Z" transform="translate(-34.313 -49.539)" fill="#051225"/>
        </g>
      </g>
    </g>
  </g>
</svg>
