<svg xmlns="http://www.w3.org/2000/svg" width="30" height="30" viewBox="0 0 30 30">
  <g id="Group_223" data-name="Group 223" transform="translate(-767 -461)">
    <rect id="Rectangle_17035" data-name="Rectangle 17035" width="30" height="30" transform="translate(767 461)" fill="rgba(255,255,255,0)"/>
    <g id="turn-left" transform="translate(767 390.033)">
      <path id="Path_93" data-name="Path 93" d="M15.816,95.812l-5.6-4.423a.546.546,0,0,1-.007-.871l5.578-4.408a.6.6,0,0,1,1.006.412V89.29H29.937a7.989,7.989,0,0,1,5.6,2.28,7.63,7.63,0,0,1,0,10.974,7.99,7.99,0,0,1-5.6,2.28H20.478a.844.844,0,0,1-.85-.832v-1.664a.844.844,0,0,1,.85-.832h9.459a4.564,4.564,0,0,0,3.2-1.305,4.351,4.351,0,0,0,0-6.267,4.564,4.564,0,0,0-3.2-1.305H16.8v2.76a.6.6,0,0,1-.98.432Z" transform="translate(-9.434 -9.424)" fill="#9da5be" fill-rule="evenodd"/>
      <g id="Group_218" data-name="Group 218" transform="translate(-0.001 75.967)">
        <path id="Shape" d="M.274,1.368h.821a.274.274,0,0,0,.274-.274V.274a.274.274,0,0,0-.547,0V.821H.274a.274.274,0,1,0,0,.547Z" transform="translate(12.496 17.183) rotate(90)" fill="#f5f5f5"/>
        <path id="Path_94" data-name="Path 94" d="M26.506,81.749a8.521,8.521,0,0,0-6-2.446H7.929V77.088a1.105,1.105,0,0,0-.683-1.02,1.2,1.2,0,0,0-1.255.183L.423,80.656a1.1,1.1,0,0,0,.01,1.738L6.027,86.82a1.185,1.185,0,0,0,1.246.141,1.11,1.11,0,0,0,.656-1.006V83.747h3.455a.556.556,0,1,0,0-1.111H7.363a.561.561,0,0,0-.566.555v2.76a.061.061,0,0,1-.03.013.032.032,0,0,1-.028-.009l-5.6-4.428s-1.4,1.1-.007-.007,5.578-4.413,5.578-4.413l.025-.021a.031.031,0,0,1,.027-.009.066.066,0,0,1,.032.011v2.771a.561.561,0,0,0,.566.555H20.5a7.385,7.385,0,0,1,5.2,2.12,7.1,7.1,0,0,1,0,10.2,7.385,7.385,0,0,1-5.2,2.12H11.045a.284.284,0,0,1-.283-.278V92.912a.284.284,0,0,1,.283-.278H20.5a5.111,5.111,0,0,0,3.6-1.469,4.907,4.907,0,0,0,0-7.06,5.112,5.112,0,0,0-3.6-1.469h-6.44a.556.556,0,1,0,0,1.111H20.5a3.975,3.975,0,0,1,2.8,1.144,3.811,3.811,0,0,1,0,5.488,3.975,3.975,0,0,1-2.8,1.144H11.045a1.4,1.4,0,0,0-1.416,1.389v1.666a1.4,1.4,0,0,0,1.416,1.389H20.5a8.522,8.522,0,0,0,6-2.446,8.193,8.193,0,0,0,0-11.772Z" transform="translate(0.001 -75.967)"/>
      </g>
      <path id="Shape-2" data-name="Shape" d="M40.841,5.129l5.524-3.846a.871.871,0,0,1,1.085.082L42.044,5.129a.656.656,0,0,0,0,1.111L47.45,10a.871.871,0,0,1-1.085.082L40.841,6.24a.656.656,0,0,1,0-1.111Z" transform="translate(-40.087 75.926)" fill="#051225" opacity="0.2"/>
    </g>
  </g>
</svg>
