<svg xmlns="http://www.w3.org/2000/svg" width="30" height="30" viewBox="0 0 30 30">
  <g id="Group_226" data-name="Group 226" transform="translate(-500 -594)">
    <rect id="Rectangle_17037" data-name="Rectangle 17037" width="30" height="30" transform="translate(500 594)" fill="rgba(255,255,255,0)"/>
    <g id="Group_217" data-name="Group 217" transform="translate(-1272.662 694.982)">
      <path id="Shape" d="M5.668,32.076H3.209a1,1,0,0,0-.984,1V38.1a1,1,0,0,0,.984,1H21.4v1.942a1.006,1.006,0,0,0,.555.9A.967.967,0,0,0,23,41.833l6.772-5.456a1.014,1.014,0,0,0,0-1.576L23,29.345a.967.967,0,0,0-1.039-.116,1.006,1.006,0,0,0-.555.9v1.942Z" transform="translate(1771.977 -121.571)" fill="#60a917"/>
      <g id="Group_217-2" data-name="Group 217" transform="translate(1774.203 -92.442)">
        <path id="Shape-2" data-name="Shape" d="M18.086,30.21V32.3h-1.62V30.21a1.08,1.08,0,0,1,1.75-.848l.159.125a1.049,1.049,0,0,0-.288.723Z" transform="translate(2.596 -29.129)" fill="#549414"/>
        <path id="Shape-3" data-name="Shape" d="M18.086,51.09a1.049,1.049,0,0,0,.288.723l-.159.125a1.08,1.08,0,0,1-1.75-.848V49h1.62Z" transform="translate(2.596 -39.251)" fill="#549414"/>
        <path id="Shape-4" data-name="Shape" d="M55.08,35H56.7a1.02,1.02,0,0,0-1.08.94v4.7a1.02,1.02,0,0,0,1.08.94H55.08a1.02,1.02,0,0,1-1.08-.94v-4.7A1.02,1.02,0,0,1,55.08,35Z" transform="translate(-54 -31.829)" fill="#549414"/>
      </g>
      <path id="Shape-5" data-name="Shape" d="M51.54,43.7h1.62a.54.54,0,0,0,0-1.08H52.08V41.54a.54.54,0,1,0-1.08,0v1.62A.54.54,0,0,0,51.54,43.7Z" transform="translate(1724.823 -127.21)" fill="#f5f5f5"/>
      <path id="Shape-6" data-name="Shape" d="M2.707,31.092H5.174a.5.5,0,0,1,0,1.009H2.707a.5.5,0,0,0-.493.5v5.047a.5.5,0,0,0,.493.5H20.963a.5.5,0,0,1,.493.5v1.953a.506.506,0,0,0,.278.454.484.484,0,0,0,.521-.058l6.8-5.487a.509.509,0,0,0,0-.791l-6.8-5.487a.484.484,0,0,0-.521-.057.506.506,0,0,0-.278.454V31.6a.5.5,0,0,1-.493.5H7.641a.5.5,0,0,1,0-1.009H20.47V29.644a1.517,1.517,0,0,1,.835-1.363,1.453,1.453,0,0,1,1.563.174l6.793,5.485a1.532,1.532,0,0,1,0,2.377L22.869,41.8a1.453,1.453,0,0,1-1.564.176,1.517,1.517,0,0,1-.835-1.363V39.167H2.707a1.5,1.5,0,0,1-1.48-1.514V32.606a1.5,1.5,0,0,1,1.48-1.514Z" transform="translate(1772.436 -121.112)"/>
    </g>
  </g>
</svg>
