<svg xmlns="http://www.w3.org/2000/svg" width="26" height="30" viewBox="0 0 26 30">
  <g id="Group_205" data-name="Group 205" transform="translate(-190 -599.894)">
    <g id="location" transform="translate(160.5 599.894)">
      <ellipse id="Ellipse_5" data-name="Ellipse 5" cx="8" cy="7.5" rx="8" ry="7.5" transform="translate(34.5 5.43)" fill="#fff"/>
      <path id="Path_89" data-name="Path 89" d="M51.692,3.886a12.815,12.815,0,0,0-18.385,0A13.32,13.32,0,0,0,29.5,13.268,13.214,13.214,0,0,0,39.732,26.234L42.5,30l2.768-3.766A13.214,13.214,0,0,0,55.5,13.268a13.32,13.32,0,0,0-3.808-9.382ZM42.5,3.464a9.66,9.66,0,0,1,9.549,9.746,9.551,9.551,0,1,1-19.1,0A9.66,9.66,0,0,1,42.5,3.464Z" transform="translate(0 0)" fill="#ff9c48"/>
    </g>
    <g id="face-24px-2" transform="translate(194 604)">
      <path id="Path_54" data-name="Path 54" d="M0,0H18V18H0Z" fill="none"/>
      <path id="Path_55" data-name="Path 55" d="M8.669,10.892a1.01,1.01,0,1,1-1.01-1.01A1.011,1.011,0,0,1,8.669,10.892Zm3.84-1.01a1.01,1.01,0,1,0,1.01,1.01A1.011,1.011,0,0,0,12.508,9.881Zm5.658.2A8.083,8.083,0,1,1,10.083,2,8.086,8.086,0,0,1,18.167,10.083ZM9,3.714A6.458,6.458,0,0,0,14.529,6.85a6.746,6.746,0,0,0,1.083-.1,6.458,6.458,0,0,0-5.529-3.136A6.746,6.746,0,0,0,9,3.714ZM3.956,8.038A6.5,6.5,0,0,0,6.915,4.449,6.5,6.5,0,0,0,3.956,8.038ZM16.55,10.083a6.369,6.369,0,0,0-.267-1.811,8.33,8.33,0,0,1-1.754.194A8.083,8.083,0,0,1,8.256,5.484,8.1,8.1,0,0,1,3.617,9.97a.528.528,0,0,1,0,.113,6.467,6.467,0,1,0,12.933,0Z" transform="translate(-1.083 -1.083)" fill="#ff9c48"/>
    </g>
  </g>
</svg>
