<svg xmlns="http://www.w3.org/2000/svg" width="30" height="30" viewBox="0 0 101 107">
  <g id="Group_10" data-name="Group 10" transform="translate(-619 -338)">
    <g id="ladder" transform="translate(619 338)">
      <g id="Group_5" data-name="Group 5" transform="translate(1.496 1.495)">
        <g id="Group_3" data-name="Group 3">
          <path id="Path_32" data-name="Path 32" d="M69.432,75.985,65.587,61.636h.994a2.989,2.989,0,0,0,0-5.978h-2.6L60.782,43.7h.993a2.989,2.989,0,0,0,0-5.977h-2.6l-3.2-11.955h.994a2.989,2.989,0,0,0,0-5.978h-2.6l-.887-3.308a4.62,4.62,0,0,1,8.925-2.391l15.944,59.5a4.619,4.619,0,0,1-4.408,5.815h-.1A4.639,4.639,0,0,1,69.432,75.985Z" transform="translate(-21.729 -10.67)" fill="#2d5b9b"/>
          <path id="Path_33" data-name="Path 33" d="M295.931,43.7l3.2,11.955,1.6,5.978,3.2,11.958a4.62,4.62,0,0,1-8.925,2.391l-15.943-59.5A4.62,4.62,0,0,1,288,14.092l1.527,5.7,1.6,5.978,3.2,11.955Z" transform="translate(-278.914 -10.669)" fill="#2d5b9b"/>
        </g>
        <g id="Group_4" data-name="Group 4" transform="translate(10.61 9.123)">
          <path id="Path_34" data-name="Path 34" d="M209.416,81.77H187.379l-1.6-5.978h24.632a2.989,2.989,0,0,1,0,5.978Z" transform="translate(-185.777 -75.792)" fill="#2d5b9b"/>
          <path id="Path_35" data-name="Path 35" d="M151.481,203.8h24.632a2.989,2.989,0,0,1,0,5.977h-23.03Z" transform="translate(-146.676 -185.866)" fill="#2d5b9b"/>
          <path id="Path_36" data-name="Path 36" d="M117.18,331.8h24.632a2.989,2.989,0,0,1,0,5.978H118.782Z" transform="translate(-107.57 -295.936)" fill="#acd01b"/>
        </g>
      </g>
      <g id="Group_6" data-name="Group 6" transform="translate(0)">
        <path id="Path_37" data-name="Path 37" d="M42.863,7.7a6.128,6.128,0,0,1,4.3-7.482l.022-.006a6.116,6.116,0,0,1,7.489,4.323l1.23,4.592H74.848L74.466,7.7A6.128,6.128,0,0,1,78.771.213L78.79.208a6.116,6.116,0,0,1,7.489,4.323l15.943,59.5A6.127,6.127,0,0,1,97.9,71.521l-.024.006a6.089,6.089,0,0,1-1.422.2c-.027,0-.054,0-.082,0H86.493a1.495,1.495,0,0,1,0-2.989h4.568a6.068,6.068,0,0,1-.652-1.542L86.862,53.956H67.918l2.7,10.076A6.127,6.127,0,0,1,66.3,71.52l-.024.006a6.082,6.082,0,0,1-1.552.2h-.047c-4.388,0-4.329-1.307-4.949-2.254a6.074,6.074,0,0,1-.918-2.277ZM83.2,33.034H84.2a1.494,1.494,0,0,0,0-2.989H61.512l.8,2.989ZM60.711,27.057H79.654l-2.4-8.966H58.308ZM57.508,15.1H79.391a1.494,1.494,0,0,0,0-2.989H56.707ZM93.3,66.424A3.133,3.133,0,0,0,96.32,68.74h0a3.1,3.1,0,0,0,.8-.106l.017,0a3.138,3.138,0,0,0,2.193-3.823L83.391,5.305a3.135,3.135,0,0,0-3.026-2.316,3.1,3.1,0,0,0-.788.1l-.014,0a3.139,3.139,0,0,0-2.21,3.828l.59,2.2h1.449a4.488,4.488,0,0,1,4.483,4.483c0,.073,0,.145-.005.217,0,.023,0,.047,0,.07,0,.048-.006.1-.011.145,0,.027-.006.054-.009.082,0,.044-.011.087-.017.13s-.009.057-.013.085-.015.084-.022.126-.011.055-.017.083-.019.085-.029.127c-.006.026-.012.052-.019.077-.012.047-.025.092-.039.138-.006.021-.012.041-.018.062q-.031.1-.066.195l-.014.035c-.02.053-.04.1-.062.157-.01.023-.02.045-.03.068-.018.04-.035.08-.054.119l-.037.075c-.018.036-.036.073-.055.108l-.041.076-.06.1-.043.072c-.022.035-.045.07-.067.105l-.043.066q-.04.059-.083.116l-.036.049q-.06.08-.124.157l-.038.044c-.031.037-.062.073-.094.109l-.054.059-.085.089-.06.06-.086.082-.063.058-.09.078-.065.054c-.032.026-.065.052-.1.077l-.062.047c-.041.031-.083.06-.125.089l-.041.029q-.083.056-.169.109l-.055.032c-.04.024-.08.047-.121.07l-.07.037-.112.057-.076.036-.112.051-.077.033-.118.046-.076.028-.13.044-.067.022c-.062.019-.126.037-.19.054l-.01,0c-.063.016-.126.031-.19.045l2.428,9.063H84.2a4.488,4.488,0,0,1,4.483,4.483c0,.073,0,.145-.005.217,0,.023,0,.047,0,.07,0,.048-.006.1-.011.144,0,.028-.006.055-.009.082,0,.044-.011.087-.017.13,0,.028-.009.056-.013.084s-.015.085-.022.127-.011.055-.017.083c-.009.043-.019.085-.03.128-.006.026-.012.051-.019.077-.013.047-.026.093-.04.14l-.018.061c-.021.066-.043.131-.066.2l-.013.033c-.02.053-.041.107-.063.159l-.029.066c-.018.04-.036.081-.055.121l-.036.073c-.018.037-.037.074-.057.111l-.04.073c-.02.036-.04.072-.062.107l-.042.071c-.022.036-.046.072-.069.107l-.042.064c-.028.041-.057.081-.085.12l-.032.045q-.061.081-.125.159l-.034.04c-.032.038-.065.077-.1.114l-.052.056-.088.092-.059.058-.088.084-.061.056-.092.08-.062.052-.1.08-.059.045c-.043.032-.087.063-.131.093l-.034.024c-.056.038-.113.074-.17.109l-.052.031c-.041.024-.082.048-.124.072l-.068.036-.114.059L86.1,35.6l-.114.052-.076.032-.119.047-.074.028-.133.045-.064.021q-.1.03-.2.056h0c-.063.016-.126.031-.19.045l2.428,9.063H89a4.488,4.488,0,0,1,4.483,4.483c0,.073,0,.145-.005.217,0,.023,0,.047,0,.07,0,.048-.006.1-.011.145,0,.027-.006.054-.009.082-.005.044-.01.087-.017.131s-.009.056-.013.084-.015.085-.023.127-.011.054-.016.082c-.009.043-.02.086-.03.129-.006.025-.012.05-.018.075-.013.048-.027.1-.041.143l-.017.057c-.021.066-.043.132-.067.2l-.01.025q-.032.084-.066.167l-.027.062q-.028.063-.057.126c-.011.023-.022.046-.034.069-.019.039-.039.077-.059.115l-.038.069c-.021.038-.042.075-.064.112l-.04.066c-.024.038-.048.076-.073.114L92.709,52q-.046.067-.094.132l-.024.033q-.062.082-.127.162l-.023.027q-.054.064-.11.127l-.045.048c-.031.034-.062.067-.095.1l-.053.052-.095.09-.056.051-.1.086-.056.047c-.036.03-.073.059-.111.087l-.05.038q-.073.054-.147.1l-.018.013c-.057.039-.115.076-.174.112l-.04.024c-.045.027-.09.053-.137.079l-.061.032-.121.062-.069.033-.119.054-.072.031-.123.048-.071.027-.135.046-.062.02c-.064.02-.129.038-.194.055l-.007,0c-.063.016-.126.031-.19.045ZM88.008,50.967H89a1.494,1.494,0,0,0,0-2.989H66.317l.8,2.989h20.89Zm-3.549-5.978-2.4-8.966H63.113l2.4,8.966ZM67.415,67.175a3.1,3.1,0,0,0,.317-2.369l-9.07-33.851-.54-2.017v0L51.788,5.3a3.135,3.135,0,0,0-3.026-2.316,3.089,3.089,0,0,0-.786.1l-.016,0a3.139,3.139,0,0,0-2.21,3.828l15.943,59.5a3.135,3.135,0,0,0,3.026,2.316,3.1,3.1,0,0,0,.8-.106l.017,0a3.334,3.334,0,0,0,.9-.41A2.985,2.985,0,0,0,67.415,67.175Z" transform="translate(-42.654 0)"/>
      </g>
    </g>
    <g id="ladder-2" data-name="ladder" transform="translate(628.463 373.23)">
      <g id="Group_5-2" data-name="Group 5" transform="translate(1.496 1.495)">
        <g id="Group_3-2" data-name="Group 3">
          <path id="Path_32-2" data-name="Path 32" d="M69.432,75.985,65.587,61.636h.994a2.989,2.989,0,0,0,0-5.978h-2.6L60.782,43.7h.993a2.989,2.989,0,0,0,0-5.977h-2.6l-3.2-11.955h.994a2.989,2.989,0,0,0,0-5.978h-2.6l-.887-3.308a4.62,4.62,0,0,1,8.925-2.391l15.944,59.5a4.619,4.619,0,0,1-4.408,5.815h-.1A4.639,4.639,0,0,1,69.432,75.985Z" transform="translate(-21.729 -10.67)" fill="#2d5b9b"/>
          <path id="Path_33-2" data-name="Path 33" d="M295.931,43.7l3.2,11.955,1.6,5.978,3.2,11.958a4.62,4.62,0,0,1-8.925,2.391l-15.943-59.5A4.62,4.62,0,0,1,288,14.092l1.527,5.7,1.6,5.978,3.2,11.955Z" transform="translate(-278.914 -10.669)" fill="#2d5b9b"/>
        </g>
        <g id="Group_4-2" data-name="Group 4" transform="translate(10.61 9.123)">
          <path id="Path_34-2" data-name="Path 34" d="M209.416,81.77H187.379l-1.6-5.978h24.632a2.989,2.989,0,0,1,0,5.978Z" transform="translate(-185.777 -75.792)" fill="#2d5b9b"/>
          <path id="Path_35-2" data-name="Path 35" d="M151.481,203.8h24.632a2.989,2.989,0,0,1,0,5.977h-23.03Z" transform="translate(-146.676 -185.866)" fill="#2d5b9b"/>
          <path id="Path_36-2" data-name="Path 36" d="M117.18,331.8h24.632a2.989,2.989,0,0,1,0,5.978H118.782Z" transform="translate(-107.57 -295.936)" fill="#2d5b9b"/>
        </g>
      </g>
      <g id="Group_6-2" data-name="Group 6" transform="translate(0)">
        <path id="Path_37-2" data-name="Path 37" d="M42.863,7.7a6.128,6.128,0,0,1,4.3-7.482l.022-.006a6.116,6.116,0,0,1,7.489,4.323l1.23,4.592H74.848L74.466,7.7A6.128,6.128,0,0,1,78.771.213L78.79.208a6.116,6.116,0,0,1,7.489,4.323l15.943,59.5A6.127,6.127,0,0,1,97.9,71.521l-.024.006a6.089,6.089,0,0,1-1.422.2c-.027,0-.054,0-.082,0H86.493a1.495,1.495,0,0,1,0-2.989h4.568a6.068,6.068,0,0,1-.652-1.542L86.862,53.956H67.918l2.7,10.076A6.127,6.127,0,0,1,66.3,71.52l-.024.006a6.082,6.082,0,0,1-1.552.2H62.205A3,3,0,0,1,60.013,69.5c0-.825.07.332.07.332l-.624-1.1a6.081,6.081,0,0,1-.653-1.542ZM83.2,33.034H84.2a1.494,1.494,0,0,0,0-2.989H61.512l.8,2.989ZM60.711,27.057H79.654l-2.4-8.966H58.308ZM57.508,15.1H79.391a1.494,1.494,0,0,0,0-2.989H56.707ZM93.3,66.424A3.133,3.133,0,0,0,96.32,68.74h0a3.1,3.1,0,0,0,.8-.106l.017,0a3.138,3.138,0,0,0,2.193-3.823L83.391,5.305a3.135,3.135,0,0,0-3.026-2.316,3.1,3.1,0,0,0-.788.1l-.014,0a3.139,3.139,0,0,0-2.21,3.828l.59,2.2h1.449a4.488,4.488,0,0,1,4.483,4.483c0,.073,0,.145-.005.217,0,.023,0,.047,0,.07,0,.048-.006.1-.011.145,0,.027-.006.054-.009.082,0,.044-.011.087-.017.13s-.009.057-.013.085-.015.084-.022.126-.011.055-.017.083-.019.085-.029.127c-.006.026-.012.052-.019.077-.012.047-.025.092-.039.138-.006.021-.012.041-.018.062q-.031.1-.066.195l-.014.035c-.02.053-.04.1-.062.157-.01.023-.02.045-.03.068-.018.04-.035.08-.054.119l-.037.075c-.018.036-.036.073-.055.108l-.041.076-.06.1-.043.072c-.022.035-.045.07-.067.105l-.043.066q-.04.059-.083.116l-.036.049q-.06.08-.124.157l-.038.044c-.031.037-.062.073-.094.109l-.054.059-.085.089-.06.06-.086.082-.063.058-.09.078-.065.054c-.032.026-.065.052-.1.077l-.062.047c-.041.031-.083.06-.125.089l-.041.029q-.083.056-.169.109l-.055.032c-.04.024-.08.047-.121.07l-.07.037-.112.057-.076.036-.112.051-.077.033-.118.046-.076.028-.13.044-.067.022c-.062.019-.126.037-.19.054l-.01,0c-.063.016-.126.031-.19.045l2.428,9.063H84.2a4.488,4.488,0,0,1,4.483,4.483c0,.073,0,.145-.005.217,0,.023,0,.047,0,.07,0,.048-.006.1-.011.144,0,.028-.006.055-.009.082,0,.044-.011.087-.017.13,0,.028-.009.056-.013.084s-.015.085-.022.127-.011.055-.017.083c-.009.043-.019.085-.03.128-.006.026-.012.051-.019.077-.013.047-.026.093-.04.14l-.018.061c-.021.066-.043.131-.066.2l-.013.033c-.02.053-.041.107-.063.159l-.029.066c-.018.04-.036.081-.055.121l-.036.073c-.018.037-.037.074-.057.111l-.04.073c-.02.036-.04.072-.062.107l-.042.071c-.022.036-.046.072-.069.107l-.042.064c-.028.041-.057.081-.085.12l-.032.045q-.061.081-.125.159l-.034.04c-.032.038-.065.077-.1.114l-.052.056-.088.092-.059.058-.088.084-.061.056-.092.08-.062.052-.1.08-.059.045c-.043.032-.087.063-.131.093l-.034.024c-.056.038-.113.074-.17.109l-.052.031c-.041.024-.082.048-.124.072l-.068.036-.114.059L86.1,35.6l-.114.052-.076.032-.119.047-.074.028-.133.045-.064.021q-.1.03-.2.056h0c-.063.016-.126.031-.19.045l2.428,9.063H89a4.488,4.488,0,0,1,4.483,4.483c0,.073,0,.145-.005.217,0,.023,0,.047,0,.07,0,.048-.006.1-.011.145,0,.027-.006.054-.009.082-.005.044-.01.087-.017.131s-.009.056-.013.084-.015.085-.023.127-.011.054-.016.082c-.009.043-.02.086-.03.129-.006.025-.012.05-.018.075-.013.048-.027.1-.041.143l-.017.057c-.021.066-.043.132-.067.2l-.01.025q-.032.084-.066.167l-.027.062q-.028.063-.057.126c-.011.023-.022.046-.034.069-.019.039-.039.077-.059.115l-.038.069c-.021.038-.042.075-.064.112l-.04.066c-.024.038-.048.076-.073.114L92.709,52q-.046.067-.094.132l-.024.033q-.062.082-.127.162l-.023.027q-.054.064-.11.127l-.045.048c-.031.034-.062.067-.095.1l-.053.052-.095.09-.056.051-.1.086-.056.047c-.036.03-.073.059-.111.087l-.05.038q-.073.054-.147.1l-.018.013c-.057.039-.115.076-.174.112l-.04.024c-.045.027-.09.053-.137.079l-.061.032-.121.062-.069.033-.119.054-.072.031-.123.048-.071.027-.135.046-.062.02c-.064.02-.129.038-.194.055l-.007,0c-.063.016-.126.031-.19.045ZM88.008,50.967H89a1.494,1.494,0,0,0,0-2.989H66.317l.8,2.989h20.89Zm-3.549-5.978-2.4-8.966H63.113l2.4,8.966ZM67.415,67.175a3.1,3.1,0,0,0,.317-2.369l-9.07-33.851-.54-2.017v0L51.788,5.3a3.135,3.135,0,0,0-3.026-2.316,3.089,3.089,0,0,0-.786.1l-.016,0a3.139,3.139,0,0,0-2.21,3.828l15.943,59.5a3.135,3.135,0,0,0,3.026,2.316,3.1,3.1,0,0,0,.8-.106l.017,0A3.1,3.1,0,0,0,67.415,67.175Z" transform="translate(-42.654 0)"/>
      </g>
    </g>
    <g id="snake" transform="translate(650.349 369.696)">
      <path id="Path_10" data-name="Path 10" d="M171.024,564.189h-11.3a1.255,1.255,0,0,1,0-2.51h11.3a1.255,1.255,0,0,1,0,2.51Z" transform="translate(-104.505 -546.618)" fill="#dd3e46"/>
      <g id="Group_2" data-name="Group 2" transform="translate(1.255 1.261)">
        <path id="Path_11" data-name="Path 11" d="M60.839,609.843a3.765,3.765,0,0,1,3.765,3.765v20.081h-7.53V613.608A3.765,3.765,0,0,1,60.839,609.843Z" transform="translate(-54.564 -572.198)" fill="#55b56a"/>
        <path id="Path_12" data-name="Path 12" d="M57.024,652.938h47.692a5.021,5.021,0,0,1,5.02,5.02v3.765a5.021,5.021,0,0,1-5.02,5.02H57.024a5.02,5.02,0,0,1-5.02-5.02v-3.765A5.02,5.02,0,0,1,57.024,652.938Z" transform="translate(-52.004 -593.956)" fill="#55b56a"/>
        <path id="Path_13" data-name="Path 13" d="M118.868,541.331a6.275,6.275,0,1,0-12.3,0h-1.381a5.02,5.02,0,0,0-5.02,5.02v32.631h17.571v-25.1h5.02a11.3,11.3,0,0,0,11.3-11.3v-1.255Z" transform="translate(-76.322 -533.807)" fill="#55b56a"/>
      </g>
      <path id="Path_14" data-name="Path 14" d="M77.3,625.053h35.142a5.021,5.021,0,0,1,5.02,5.02v3.765a5.021,5.021,0,0,1-5.02,5.02H77.3a5.021,5.021,0,0,1-5.02-5.02v-3.765A5.021,5.021,0,0,1,77.3,625.053Z" transform="translate(-60.988 -578.616)" fill="#55b56a"/>
      <path id="Path_15" data-name="Path 15" d="M127.978,584.394h-7.53v-10.04h7.53Z" transform="translate(-85.306 -553.018)" fill="#6bb587"/>
      <path id="Path_16" data-name="Path 16" d="M127.978,599.653h-7.53v-5.02h7.53Z" transform="translate(-85.306 -563.257)" fill="#6bb587"/>
      <path id="Path_17" data-name="Path 17" d="M127.978,589.514h-7.53v-5.02h7.53Z" transform="translate(-85.306 -558.137)" fill="#cfdfe8"/>
      <path id="Path_18" data-name="Path 18" d="M127.978,609.793h-7.53v-5.02h7.53Z" transform="translate(-85.306 -568.376)" fill="#cfdfe8"/>
      <path id="Path_19" data-name="Path 19" d="M127.978,619.933h-7.53v-5.02h7.53Z" transform="translate(-85.306 -573.496)" fill="#6bb587"/>
      <path id="Path_20" data-name="Path 20" d="M57.074,622.518H64.6v5.02h-7.53Z" transform="translate(-53.309 -577.336)" fill="#ffd782"/>
      <path id="Path_21" data-name="Path 21" d="M57.074,632.658H64.6v5.02h-7.53Z" transform="translate(-53.309 -582.456)" fill="#55b56a"/>
      <path id="Path_22" data-name="Path 22" d="M92.513,630.073a5.02,5.02,0,0,0,5.02-5.02H87.493A5.02,5.02,0,0,0,92.513,630.073Z" transform="translate(-68.667 -578.616)" fill="#ffb648"/>
      <path id="Path_23" data-name="Path 23" d="M130.538,630.073a5.02,5.02,0,0,0,5.02-5.02H125.518A5.02,5.02,0,0,0,130.538,630.073Z" transform="translate(-87.866 -578.616)" fill="#ffb648"/>
      <path id="Path_24" data-name="Path 24" d="M112.793,642.8a5.02,5.02,0,0,0-5.02,5.02h10.041A5.02,5.02,0,0,0,112.793,642.8Z" transform="translate(-78.907 -587.575)" fill="#ffd782"/>
      <path id="Path_25" data-name="Path 25" d="M69.7,657.958a5.02,5.02,0,0,0,5.02-5.02H64.678A5.021,5.021,0,0,0,69.7,657.958Z" transform="translate(-57.148 -592.695)" fill="#ffb648"/>
      <path id="Path_26" data-name="Path 26" d="M112.793,657.958a5.02,5.02,0,0,0,5.02-5.02H107.773A5.02,5.02,0,0,0,112.793,657.958Z" transform="translate(-78.907 -592.695)" fill="#ffb648"/>
      <path id="Path_27" data-name="Path 27" d="M89.978,670.683a5.021,5.021,0,0,0-5.02,5.02H95A5.02,5.02,0,0,0,89.978,670.683Z" transform="translate(-67.387 -601.654)" fill="#ffd782"/>
      <path id="Path_28" data-name="Path 28" d="M138.143,670.683a5.02,5.02,0,0,0-5.02,5.02h10.041A5.02,5.02,0,0,0,138.143,670.683Z" transform="translate(-91.706 -601.654)" fill="#ffd782"/>
      <path id="Path_29" data-name="Path 29" d="M114.073,559.119h-2.51a1.255,1.255,0,1,1,0-2.51h2.51a1.255,1.255,0,1,1,0,2.51Z" transform="translate(-80.187 -544.058)" fill="#f98c96"/>
      <path id="Path_30" data-name="Path 30" d="M114.073,556.609h-2.51a1.255,1.255,0,1,0,0,2.51h2.51a1.255,1.255,0,1,0,0-2.51Z" transform="translate(-80.187 -544.058)" fill="#318942"/>
      <path id="Path_31" data-name="Path 31" d="M115.987,546.32h-7.331a12.465,12.465,0,0,0,1.056-5.02v-1.255a1.255,1.255,0,0,0-1.255-1.255H94.651a7.53,7.53,0,1,0-15.061,0,6.283,6.283,0,0,0-6.275,6.275v31.376h-7.53a6.215,6.215,0,0,0-3.765,1.288v-3.8a5.02,5.02,0,1,0-10.04,0v17.6a6.246,6.246,0,0,0-2.51,4.993v3.765a6.282,6.282,0,0,0,6.275,6.275h47.692a6.283,6.283,0,0,0,6.275-6.275v-3.765a6.267,6.267,0,0,0-4.13-5.873,6.229,6.229,0,0,0,1.619-4.168v-3.765a6.283,6.283,0,0,0-6.275-6.275H93.4V553.85h3.765a12.523,12.523,0,0,0,10.019-5.02h8.807a1.255,1.255,0,0,0,0-2.51ZM76.866,578.951a3.765,3.765,0,0,1-7.1,0Zm-11.3,13.806a3.765,3.765,0,0,1-7.1,0ZM54.489,577.7h5.02v2.51h-5.02Zm0,5.02h5.02v2.51h-5.02Zm2.51-11.3a2.51,2.51,0,0,1,2.51,2.51v1.255h-5.02v-1.255A2.51,2.51,0,0,1,57,571.421Zm-2.51,18.826v-2.51h5.02v2.51Zm14.02,13.806a3.765,3.765,0,0,1,7.1,0Zm23.846,0a3.766,3.766,0,0,1,7.1,0Zm14.847-7.53v3.765a3.765,3.765,0,0,1-3.765,3.765h-1.381a6.275,6.275,0,0,0-12.3,0H78.209a6.275,6.275,0,0,0-12.3,0H55.744a3.765,3.765,0,0,1-3.765-3.765v-3.765a3.765,3.765,0,0,1,3.765-3.765h.125a6.275,6.275,0,0,0,12.3,0h9.037a6.275,6.275,0,0,0,12.3,0h13.932A3.765,3.765,0,0,1,107.2,596.522Zm-27.4-6.275a3.766,3.766,0,0,1,7.1,0Zm7.1,2.51a3.766,3.766,0,0,1-7.1,0Zm17.785-10.041v3.765a3.765,3.765,0,0,1-3.765,3.765H89.505a6.275,6.275,0,0,0-12.3,0H65.784a3.766,3.766,0,0,1-3.765-3.765v-3.765a3.766,3.766,0,0,1,3.765-3.765h1.381a6.275,6.275,0,0,0,12.3,0h6.527a6.275,6.275,0,0,0,12.3,0h2.636A3.765,3.765,0,0,1,104.692,582.716ZM90.886,561.38h-5.02v-2.51h5.02Zm0,5.02h-5.02v-2.51h5.02Zm-5.02,2.51h5.02v2.51h-5.02Zm5.02-12.55h-5.02v-2.51h5.02Zm1.255,25.1a3.773,3.773,0,0,1-3.551-2.51h7.1A3.773,3.773,0,0,1,92.141,581.461Zm-6.275-5.02v-2.51h5.02v2.51Zm11.3-25.1H84.611a1.255,1.255,0,0,0-1.255,1.255v23.846h-7.53V545.065A3.765,3.765,0,0,1,79.59,541.3h1.381a1.256,1.256,0,0,0,1.23-1.507,5.02,5.02,0,1,1,9.837,0A1.255,1.255,0,0,0,93.27,541.3H107.2A10.053,10.053,0,0,1,97.161,551.34Z" transform="translate(-49.469 -531.259)"/>
      <circle id="Ellipse_1" data-name="Ellipse 1" cx="1.726" cy="1.726" r="1.726" transform="translate(35.926 6.903)"/>
      <rect id="Rectangle_5" data-name="Rectangle 5" width="4.31" height="1.979" rx="0.989" transform="translate(69.651 15.231) rotate(150)"/>
      <rect id="Rectangle_6" data-name="Rectangle 6" width="4.31" height="1.447" rx="0.724" transform="matrix(-0.966, -0.259, 0.259, -0.966, 68.469, 18.057)"/>
    </g>
    <path id="Path_46" data-name="Path 46" d="M699.9,394.267l6.044-1.792,2.209,8.808-5.914,1.956Z" transform="translate(-38.597 -20.521)" fill="#2d5b9b"/>
    <path id="Path_47" data-name="Path 47" d="M699.9,394.267l6.044-1.792,2.209,8.808-5.914,1.956Z" transform="translate(-70.053 -20.521)" fill="#2d5b9b"/>
  </g>
</svg>
