<svg xmlns="http://www.w3.org/2000/svg" width="50" height="50" viewBox="0 0 50 50">
  <g id="fireworks-2" transform="translate(0 0)">
    <g id="Group_259" data-name="Group 259" transform="translate(0.977 0.977)">
      <path id="Path_168" data-name="Path 168" d="M185.918,186.108l2.628-2.892a1.374,1.374,0,0,0-.719-2.26l-3.941-.871-1.936-3.39a1.371,1.371,0,0,0-2.373-.016l-2.045,3.477-3.827.8a1.372,1.372,0,0,0-.746,2.249l2.676,3.021-.426,3.89a1.371,1.371,0,0,0,1.911,1.4l3.7-1.611,3.562,1.606a1.373,1.373,0,0,0,1.927-1.38Z" transform="translate(-156.734 -159.791)" fill="#ffc144" fill-rule="evenodd"/>
      <path id="Path_169" data-name="Path 169" d="M82.576,71.859c1.925-.913-1.46-9.2-7.845-10.746a2.92,2.92,0,1,0-1.373,5.676C79.865,68.364,80.735,72.732,82.576,71.859Z" transform="translate(-65.154 -56.047)" fill="#ff5d7d" fill-rule="evenodd"/>
      <path id="Path_170" data-name="Path 170" d="M41.949,204.361c.275-1.337-5.268-2.8-8.518-.127a1.87,1.87,0,0,0,2.374,2.889C39.117,204.4,41.687,205.639,41.949,204.361Z" transform="translate(-30.527 -183.917)" fill="#5cd0b3" fill-rule="evenodd"/>
      <path id="Path_171" data-name="Path 171" d="M51.91,300.795c-.846-1.956-9.246,1.143-11.009,7.471a2.92,2.92,0,1,0,5.626,1.568C48.324,303.384,52.719,302.665,51.91,300.795Z" transform="translate(-37.786 -271.872)" fill="#60a4ff" fill-rule="evenodd"/>
      <path id="Path_172" data-name="Path 172" d="M183.281,382.988c-1.02-.906-5.057,3.164-4.37,7.314a1.87,1.87,0,0,0,3.689-.611C181.9,385.46,184.256,383.854,183.281,382.988Z" transform="translate(-162.345 -346.448)" fill="#cbe558" fill-rule="evenodd"/>
      <path id="Path_173" data-name="Path 173" d="M285.4,382.988c-.975.866,1.381,2.473.68,6.7a1.87,1.87,0,0,0,3.689.611C290.46,386.151,286.423,382.081,285.4,382.988Z" transform="translate(-258.292 -346.448)" fill="#cbe558" fill-rule="evenodd"/>
      <path id="Path_174" data-name="Path 174" d="M356.458,300.795c-.809,1.87,3.586,2.589,5.384,9.039a2.92,2.92,0,0,0,5.626-1.568C365.7,301.938,357.3,298.839,356.458,300.795Z" transform="translate(-322.536 -271.872)" fill="#ff5d7d" fill-rule="evenodd"/>
      <path id="Path_175" data-name="Path 175" d="M384.942,204.361c.263,1.278,2.832.04,6.144,2.762a1.87,1.87,0,0,0,2.374-2.889C390.21,201.563,384.667,203.025,384.942,204.361Z" transform="translate(-348.318 -183.917)" fill="#5cd0b3" fill-rule="evenodd"/>
      <path id="Path_176" data-name="Path 176" d="M232.194,21.08c.606,0,2.577-4.354,2.577-7.244,0-2.393-1.164-3.845-2.577-3.836-1.412-.009-2.577,1.442-2.577,3.836C229.617,16.727,231.588,21.08,232.194,21.08Z" transform="translate(-208.17 -10.001)" fill="#cbe558" fill-rule="evenodd"/>
      <path id="Path_177" data-name="Path 177" d="M326.474,61.113c-6.385,1.545-9.771,9.833-7.845,10.746,1.841.873,2.711-3.5,9.219-5.07a2.92,2.92,0,0,0-1.373-5.676Z" transform="translate(-288.004 -56.047)" fill="#60a4ff" fill-rule="evenodd"/>
      <g id="Group_258" data-name="Group 258" transform="translate(0 11.677)">
        <circle id="Ellipse_7" data-name="Ellipse 7" cx="2.197" cy="2.197" r="2.197" transform="translate(43.652)" fill="#ff764e"/>
        <circle id="Ellipse_8" data-name="Ellipse 8" cx="2.197" cy="2.197" r="2.197" fill="#ff764e"/>
        <circle id="Ellipse_9" data-name="Ellipse 9" cx="2.197" cy="2.197" r="2.197" transform="translate(7.837 31.975)" fill="#ff764e"/>
        <circle id="Ellipse_10" data-name="Ellipse 10" cx="2.197" cy="2.197" r="2.197" transform="translate(35.815 31.975)" fill="#ff764e"/>
      </g>
    </g>
    <g id="Group_260" data-name="Group 260" transform="translate(0 0)">
      <path id="Path_178" data-name="Path 178" d="M165.224,180.974a2.347,2.347,0,0,0,3.271,2.4l3.3-1.438,3.167,1.428a2.348,2.348,0,0,0,3.3-2.364l-.348-3.589,2.335-2.57a2.348,2.348,0,0,0-1.23-3.872l-3.518-.778-1.72-3.011a2.347,2.347,0,0,0-4.065-.03l-1.826,3.1-3.4.707a2.349,2.349,0,0,0-1.279,3.853l2.389,2.7Zm-.548-7.454a.393.393,0,0,1,.034-.554.388.388,0,0,1,.18-.092l3.827-.8a.976.976,0,0,0,.643-.461l2.046-3.478a.391.391,0,0,1,.24-.181.4.4,0,0,1,.1-.013.4.4,0,0,1,.343.2l1.937,3.39a.977.977,0,0,0,.637.469l3.941.871a.4.4,0,0,1,.207.65l-2.628,2.892a.977.977,0,0,0-.249.751l.389,4.017a.4.4,0,0,1-.554.4l-3.562-1.606a.977.977,0,0,0-.791,0l-3.7,1.611a.394.394,0,0,1-.518-.2.385.385,0,0,1-.031-.2l.426-3.89a.977.977,0,0,0-.24-.754Z" transform="translate(-146.745 -149.781)"/>
      <path id="Path_179" data-name="Path 179" d="M63.564,58.535a.977.977,0,1,0,.739-1.808,1.944,1.944,0,0,1,1.2-3.687c3.389.82,6.024,3.886,7.133,6.561a4.222,4.222,0,0,1,.464,2.373.244.244,0,0,1-.1-.036,4.638,4.638,0,0,1-.853-.7A.977.977,0,1,0,70.8,62.652a3.61,3.61,0,0,0,2.308,1.277,2.046,2.046,0,0,0,.886-.209c.476-.226,1.247-.86,1.071-2.576a11.952,11.952,0,0,0-2.644-5.662,12.112,12.112,0,0,0-6.46-4.339,3.9,3.9,0,0,0-2.394,7.393Z" transform="translate(-55.176 -46.049)"/>
      <path id="Path_180" data-name="Path 180" d="M38.446,301.073a12.745,12.745,0,0,1,3.908-6.286c1.006-.974,2.047-1.981,1.432-3.4-.209-.483-.817-1.276-2.538-1.159a11.954,11.954,0,0,0-5.75,2.448,12.113,12.113,0,0,0-4.559,6.307,3.9,3.9,0,0,0,7.507,2.092Zm-2.8.647A1.944,1.944,0,0,1,32.82,299.5c.936-3.358,4.091-5.887,6.8-6.9a5.89,5.89,0,0,1,1.975-.435,1.236,1.236,0,0,1,.412.053.337.337,0,0,1-.067.145A7.107,7.107,0,0,1,41,293.383a14.648,14.648,0,0,0-4.431,7.166,1.931,1.931,0,0,1-.917,1.171Z" transform="translate(-27.788 -261.873)"/>
      <path id="Path_181" data-name="Path 181" d="M174.9,373.247a1.791,1.791,0,0,0-2.189-.031,8.687,8.687,0,0,0-3.792,8.234,2.846,2.846,0,0,0,5.616-.931,7.852,7.852,0,0,1,.549-4.523c.329-.86.739-1.93-.184-2.75Zm-1.64,2.051a9.82,9.82,0,0,0-.652,5.54.893.893,0,1,1-1.762.292,6.6,6.6,0,0,1,1.395-4.851,5.822,5.822,0,0,1,1.075-1.125Z" transform="translate(-152.341 -336.461)"/>
      <path id="Path_182" data-name="Path 182" d="M25.315,199.417q.142.014.282.014a2.825,2.825,0,0,0,1.8-.648A7.851,7.851,0,0,1,31.59,197c.909-.145,2.041-.325,2.29-1.534a1.791,1.791,0,0,0-1.068-1.911,8.687,8.687,0,0,0-9.027.833,2.846,2.846,0,0,0,1.53,5.032ZM24.7,196.5a.888.888,0,0,1,.322-.6,6.291,6.291,0,0,1,3.966-1.273,7.892,7.892,0,0,1,.932.056,5.827,5.827,0,0,1,1.512.368l-.152.024a9.82,9.82,0,0,0-5.124,2.205A.893.893,0,0,1,24.7,196.5Z" transform="translate(-20.524 -173.846)"/>
      <path id="Path_183" data-name="Path 183" d="M221.674,11.831c.354.595.809,1.2,1.5,1.2s1.143-.608,1.5-1.2a13.939,13.939,0,0,0,.927-1.956,15.461,15.461,0,0,0,1.129-5.062A5.4,5.4,0,0,0,225.363.927,3.045,3.045,0,0,0,223.185,0h-.028a3.045,3.045,0,0,0-2.178.927,5.4,5.4,0,0,0-1.362,3.885,15.461,15.461,0,0,0,1.129,5.062,13.918,13.918,0,0,0,.927,1.956Zm.682-9.518a1.12,1.12,0,0,1,.8-.359h.02a1.119,1.119,0,0,1,.809.359,3.57,3.57,0,0,1,.785,2.5,14.532,14.532,0,0,1-1.6,5.708,14.532,14.532,0,0,1-1.6-5.708,3.57,3.57,0,0,1,.785-2.5Z" transform="translate(-198.171 0)"/>
      <path id="Path_184" data-name="Path 184" d="M83.426,447a3.174,3.174,0,1,0,3.174,3.174A3.177,3.177,0,0,0,83.426,447Zm0,4.395a1.221,1.221,0,1,1,1.221-1.221A1.222,1.222,0,0,1,83.426,451.4Z" transform="translate(-72.415 -403.35)"/>
      <path id="Path_185" data-name="Path 185" d="M6.348,122.752a3.174,3.174,0,1,0-3.174,3.174A3.177,3.177,0,0,0,6.348,122.752Zm-4.395,0a1.221,1.221,0,1,1,1.221,1.221A1.222,1.222,0,0,1,1.953,122.752Z" transform="translate(0 -107.901)"/>
      <path id="Path_186" data-name="Path 186" d="M164.384,30.033a.977.977,0,1,0,0-1.953h0a.977.977,0,1,0,0,1.953Z" transform="translate(-147.449 -25.338)"/>
      <path id="Path_187" data-name="Path 187" d="M33.385,37.533a.977.977,0,0,0,0-1.953h0a.977.977,0,1,0,0,1.953Z" transform="translate(-29.243 -32.105)"/>
      <path id="Path_188" data-name="Path 188" d="M31.385,291.033a.977.977,0,0,0,0-1.953h0a.977.977,0,1,0,0,1.953Z" transform="translate(-27.438 -260.85)"/>
      <path id="Path_189" data-name="Path 189" d="M246.977,461.581h0a.977.977,0,1,0,.977.977A.976.976,0,0,0,246.976,461.581Z" transform="translate(-221.977 -416.505)"/>
      <path id="Path_190" data-name="Path 190" d="M149.385,368.081h0a.977.977,0,1,0,.977.977A.976.976,0,0,0,149.384,368.081Z" transform="translate(-133.915 -332.136)"/>
      <path id="Path_191" data-name="Path 191" d="M119.391,252.581h0a.977.977,0,1,0,.977.977A.976.976,0,0,0,119.39,252.581Z" transform="translate(-106.85 -227.915)"/>
      <path id="Path_192" data-name="Path 192" d="M309.187,63.72a2.064,2.064,0,0,0,.892.214,4.1,4.1,0,0,0,2.557-1.527,12.744,12.744,0,0,1,6.417-3.689,3.9,3.9,0,1,0-1.833-7.575,12.112,12.112,0,0,0-6.46,4.339,11.955,11.955,0,0,0-2.644,5.662C307.94,62.86,308.712,63.494,309.187,63.72Zm1.36-4.118c1.109-2.675,3.745-5.741,7.133-6.561a1.943,1.943,0,1,1,.914,3.778A14.649,14.649,0,0,0,311.281,61a7.113,7.113,0,0,1-1.051.911.341.341,0,0,1-.147.062h0A4.229,4.229,0,0,1,310.547,59.6Z" transform="translate(-278.004 -46.049)"/>
      <path id="Path_193" data-name="Path 193" d="M354.775,292.674a11.952,11.952,0,0,0-5.75-2.448c-1.721-.117-2.329.676-2.538,1.159-.615,1.421.425,2.428,1.432,3.4a12.745,12.745,0,0,1,3.908,6.287,3.9,3.9,0,0,0,7.507-2.092,12.114,12.114,0,0,0-4.559-6.307Zm2.5,8.308a1.943,1.943,0,0,1-3.565-.433,14.647,14.647,0,0,0-4.431-7.166,7.1,7.1,0,0,1-.946-1.019.337.337,0,0,1-.067-.145,4.228,4.228,0,0,1,2.387.383c2.711,1.016,5.866,3.545,6.8,6.9A1.932,1.932,0,0,1,357.273,300.982Z" transform="translate(-312.485 -261.873)"/>
      <path id="Path_194" data-name="Path 194" d="M277.946,373.217a1.792,1.792,0,0,0-2.189.031c-.923.82-.513,1.89-.184,2.75a7.851,7.851,0,0,1,.55,4.522,2.846,2.846,0,1,0,5.616.931A8.687,8.687,0,0,0,277.946,373.217Zm1.865,7.915a.893.893,0,1,1-1.762-.292,9.818,9.818,0,0,0-.652-5.54l-.055-.144a5.823,5.823,0,0,1,1.075,1.125A6.6,6.6,0,0,1,279.811,381.132Z" transform="translate(-248.317 -336.462)"/>
      <path id="Path_195" data-name="Path 195" d="M385.069,194.384a8.688,8.688,0,0,0-9.027-.833,1.791,1.791,0,0,0-1.068,1.911c.249,1.209,1.38,1.39,2.29,1.534a7.852,7.852,0,0,1,4.191,1.785,2.824,2.824,0,0,0,1.8.648c.094,0,.188,0,.282-.014a2.846,2.846,0,0,0,1.53-5.032Zm-1.117,2.766a.893.893,0,0,1-1.257.123,9.819,9.819,0,0,0-5.124-2.205l-.152-.024a5.821,5.821,0,0,1,1.512-.368,6.6,6.6,0,0,1,4.9,1.218A.894.894,0,0,1,383.953,197.15Z" transform="translate(-338.33 -173.846)"/>
      <path id="Path_196" data-name="Path 196" d="M369.923,447a3.174,3.174,0,1,0,3.174,3.174A3.177,3.177,0,0,0,369.923,447Zm0,4.395a1.221,1.221,0,1,1,1.221-1.221A1.222,1.222,0,0,1,369.923,451.4Z" transform="translate(-330.934 -403.35)"/>
      <path id="Path_197" data-name="Path 197" d="M450.175,119.578a3.174,3.174,0,1,0,3.174,3.174A3.177,3.177,0,0,0,450.175,119.578Zm0,4.395a1.221,1.221,0,1,1,1.221-1.221A1.222,1.222,0,0,1,450.175,123.973Z" transform="translate(-403.349 -107.901)"/>
      <path id="Path_198" data-name="Path 198" d="M329.567,30.033h0a.977.977,0,1,0-.977-.977A.976.976,0,0,0,329.567,30.033Z" transform="translate(-296.501 -25.338)"/>
      <path id="Path_199" data-name="Path 199" d="M460.567,37.533h0a.977.977,0,1,0-.977-.977A.976.976,0,0,0,460.567,37.533Z" transform="translate(-414.708 -32.105)"/>
      <path id="Path_200" data-name="Path 200" d="M462.567,289.08a.977.977,0,0,0,0,1.953h0a.977.977,0,1,0,0-1.953Z" transform="translate(-416.513 -260.85)"/>
      <path id="Path_201" data-name="Path 201" d="M344.567,368.081a.977.977,0,0,0,0,1.953h0a.977.977,0,1,0,0-1.953Z" transform="translate(-310.036 -332.136)"/>
      <path id="Path_202" data-name="Path 202" d="M374.56,254.534h0a.977.977,0,1,0-.977-.977A.976.976,0,0,0,374.56,254.534Z" transform="translate(-337.1 -227.915)"/>
      <path id="Path_203" data-name="Path 203" d="M122.688,124.705a.977.977,0,1,0,.977.977.976.976,0,0,0-.977-.977Z" transform="translate(-109.826 -112.527)"/>
    </g>
  </g>
</svg>
